<svg width="161" height="50" viewBox="0 0 161 50" fill="none" xmlns="http://www.w3.org/2000/svg">
<rect x="18.4312" y="0.311035" width="36.3748" height="36.3748" rx="9" transform="rotate(30 18.4312 0.311035)" fill="#D9C1C2"/>
<rect x="31.5659" y="0.311035" width="36.3748" height="36.3748" rx="9" transform="rotate(30 31.5659 0.311035)" fill="#FA7275"/>
<path d="M80.616 17.32V19.552H73.536V24.472H79.056V26.704H73.536V34H70.8V17.32H80.616ZM84.5436 19.024C84.0476 19.024 83.6316 18.856 83.2956 18.52C82.9596 18.184 82.7916 17.768 82.7916 17.272C82.7916 16.776 82.9596 16.36 83.2956 16.024C83.6316 15.688 84.0476 15.52 84.5436 15.52C85.0236 15.52 85.4316 15.688 85.7676 16.024C86.1036 16.36 86.2716 16.776 86.2716 17.272C86.2716 17.768 86.1036 18.184 85.7676 18.52C85.4316 18.856 85.0236 19.024 84.5436 19.024ZM85.8876 20.776V34H83.1516V20.776H85.8876ZM92.2157 16.24V34H89.4797V16.24H92.2157ZM107.928 27.064C107.928 27.56 107.896 28.008 107.832 28.408H97.7278C97.8078 29.464 98.1998 30.312 98.9038 30.952C99.6078 31.592 100.472 31.912 101.496 31.912C102.968 31.912 104.008 31.296 104.616 30.064H107.568C107.168 31.28 106.44 32.28 105.384 33.064C104.344 33.832 103.048 34.216 101.496 34.216C100.232 34.216 99.0958 33.936 98.0878 33.376C97.0958 32.8 96.3118 32 95.7358 30.976C95.1758 29.936 94.8958 28.736 94.8958 27.376C94.8958 26.016 95.1678 24.824 95.7118 23.8C96.2718 22.76 97.0478 21.96 98.0398 21.4C99.0478 20.84 100.2 20.56 101.496 20.56C102.744 20.56 103.856 20.832 104.832 21.376C105.808 21.92 106.568 22.688 107.112 23.68C107.656 24.656 107.928 25.784 107.928 27.064ZM105.072 26.2C105.056 25.192 104.696 24.384 103.992 23.776C103.288 23.168 102.416 22.864 101.376 22.864C100.432 22.864 99.6238 23.168 98.9518 23.776C98.2798 24.368 97.8798 25.176 97.7518 26.2H105.072ZM117.292 20.56C118.332 20.56 119.26 20.776 120.076 21.208C120.908 21.64 121.556 22.28 122.02 23.128C122.484 23.976 122.716 25 122.716 26.2V34H120.004V26.608C120.004 25.424 119.708 24.52 119.116 23.896C118.524 23.256 117.716 22.936 116.692 22.936C115.668 22.936 114.852 23.256 114.244 23.896C113.652 24.52 113.356 25.424 113.356 26.608V34H110.62V20.776H113.356V22.288C113.804 21.744 114.372 21.32 115.06 21.016C115.764 20.712 116.508 20.56 117.292 20.56ZM138.326 27.064C138.326 27.56 138.294 28.008 138.23 28.408H128.126C128.206 29.464 128.598 30.312 129.302 30.952C130.006 31.592 130.87 31.912 131.894 31.912C133.366 31.912 134.406 31.296 135.014 30.064H137.966C137.566 31.28 136.838 32.28 135.782 33.064C134.742 33.832 133.446 34.216 131.894 34.216C130.63 34.216 129.494 33.936 128.486 33.376C127.494 32.8 126.71 32 126.134 30.976C125.574 29.936 125.294 28.736 125.294 27.376C125.294 26.016 125.566 24.824 126.11 23.8C126.67 22.76 127.446 21.96 128.438 21.4C129.446 20.84 130.598 20.56 131.894 20.56C133.142 20.56 134.254 20.832 135.23 21.376C136.206 21.92 136.966 22.688 137.51 23.68C138.054 24.656 138.326 25.784 138.326 27.064ZM135.47 26.2C135.454 25.192 135.094 24.384 134.39 23.776C133.686 23.168 132.814 22.864 131.774 22.864C130.83 22.864 130.022 23.168 129.35 23.776C128.678 24.368 128.278 25.176 128.15 26.2H135.47ZM145.819 34.216C144.779 34.216 143.843 34.032 143.011 33.664C142.195 33.28 141.547 32.768 141.067 32.128C140.587 31.472 140.331 30.744 140.299 29.944H143.131C143.179 30.504 143.443 30.976 143.923 31.36C144.419 31.728 145.035 31.912 145.771 31.912C146.539 31.912 147.131 31.768 147.547 31.48C147.979 31.176 148.195 30.792 148.195 30.328C148.195 29.832 147.955 29.464 147.475 29.224C147.011 28.984 146.267 28.72 145.243 28.432C144.251 28.16 143.443 27.896 142.819 27.64C142.195 27.384 141.651 26.992 141.187 26.464C140.739 25.936 140.515 25.24 140.515 24.376C140.515 23.672 140.723 23.032 141.139 22.456C141.555 21.864 142.147 21.4 142.915 21.064C143.699 20.728 144.595 20.56 145.603 20.56C147.107 20.56 148.315 20.944 149.227 21.712C150.155 22.464 150.651 23.496 150.715 24.808H147.979C147.931 24.216 147.691 23.744 147.259 23.392C146.827 23.04 146.243 22.864 145.507 22.864C144.787 22.864 144.235 23 143.851 23.272C143.467 23.544 143.275 23.904 143.275 24.352C143.275 24.704 143.403 25 143.659 25.24C143.915 25.48 144.227 25.672 144.595 25.816C144.963 25.944 145.507 26.112 146.227 26.32C147.187 26.576 147.971 26.84 148.579 27.112C149.203 27.368 149.739 27.752 150.187 28.264C150.635 28.776 150.867 29.456 150.883 30.304C150.883 31.056 150.675 31.728 150.259 32.32C149.843 32.912 149.251 33.376 148.483 33.712C147.731 34.048 146.843 34.216 145.819 34.216ZM157.031 23.008V30.328C157.031 30.824 157.143 31.184 157.367 31.408C157.607 31.616 158.007 31.72 158.567 31.72H160.247V34H158.087C156.855 34 155.911 33.712 155.255 33.136C154.599 32.56 154.271 31.624 154.271 30.328V23.008H152.711V20.776H154.271V17.488H157.031V20.776H160.247V23.008H157.031Z" fill="#FA7275"/>
</svg>
