<svg width="161" height="50" viewBox="0 0 161 50" fill="none" xmlns="http://www.w3.org/2000/svg">
<rect x="18.1875" width="36.3748" height="36.3748" rx="9" transform="rotate(30 18.1875 0)" fill="#D9C1C2"/>
<rect x="31.3223" width="36.3748" height="36.3748" rx="9" transform="rotate(30 31.3223 0)" fill="white"/>
<path d="M80.3723 17.009V19.241H73.2923V24.161H78.8123V26.393H73.2923V33.689H70.5563V17.009H80.3723ZM84.2999 18.713C83.8039 18.713 83.3879 18.545 83.0519 18.209C82.7159 17.873 82.5479 17.457 82.5479 16.961C82.5479 16.465 82.7159 16.049 83.0519 15.713C83.3879 15.377 83.8039 15.209 84.2999 15.209C84.7799 15.209 85.1879 15.377 85.5239 15.713C85.8599 16.049 86.0279 16.465 86.0279 16.961C86.0279 17.457 85.8599 17.873 85.5239 18.209C85.1879 18.545 84.7799 18.713 84.2999 18.713ZM85.6439 20.465V33.689H82.9079V20.465H85.6439ZM91.972 15.929V33.689H89.236V15.929H91.972ZM107.684 26.753C107.684 27.249 107.652 27.697 107.588 28.097H97.4842C97.5642 29.153 97.9562 30.001 98.6602 30.641C99.3642 31.281 100.228 31.601 101.252 31.601C102.724 31.601 103.764 30.985 104.372 29.753H107.324C106.924 30.969 106.196 31.969 105.14 32.753C104.1 33.521 102.804 33.905 101.252 33.905C99.9882 33.905 98.8522 33.625 97.8442 33.065C96.8522 32.489 96.0682 31.689 95.4922 30.665C94.9322 29.625 94.6522 28.425 94.6522 27.065C94.6522 25.705 94.9242 24.513 95.4682 23.489C96.0282 22.449 96.8042 21.649 97.7962 21.089C98.8042 20.529 99.9562 20.249 101.252 20.249C102.5 20.249 103.612 20.521 104.588 21.065C105.564 21.609 106.324 22.377 106.868 23.369C107.412 24.345 107.684 25.473 107.684 26.753ZM104.828 25.889C104.812 24.881 104.452 24.073 103.748 23.465C103.044 22.857 102.172 22.553 101.132 22.553C100.188 22.553 99.3802 22.857 98.7082 23.465C98.0362 24.057 97.6362 24.865 97.5082 25.889H104.828ZM117.049 20.249C118.089 20.249 119.017 20.465 119.833 20.897C120.665 21.329 121.313 21.969 121.777 22.817C122.241 23.665 122.473 24.689 122.473 25.889V33.689H119.761V26.297C119.761 25.113 119.465 24.209 118.873 23.585C118.281 22.945 117.473 22.625 116.449 22.625C115.425 22.625 114.609 22.945 114.001 23.585C113.409 24.209 113.113 25.113 113.113 26.297V33.689H110.377V20.465H113.113V21.977C113.561 21.433 114.129 21.009 114.817 20.705C115.521 20.401 116.265 20.249 117.049 20.249ZM138.083 26.753C138.083 27.249 138.051 27.697 137.987 28.097H127.883C127.963 29.153 128.355 30.001 129.059 30.641C129.763 31.281 130.627 31.601 131.651 31.601C133.123 31.601 134.163 30.985 134.771 29.753H137.723C137.323 30.969 136.595 31.969 135.539 32.753C134.499 33.521 133.203 33.905 131.651 33.905C130.387 33.905 129.251 33.625 128.243 33.065C127.251 32.489 126.467 31.689 125.891 30.665C125.331 29.625 125.051 28.425 125.051 27.065C125.051 25.705 125.323 24.513 125.867 23.489C126.427 22.449 127.203 21.649 128.195 21.089C129.203 20.529 130.355 20.249 131.651 20.249C132.899 20.249 134.011 20.521 134.987 21.065C135.963 21.609 136.723 22.377 137.267 23.369C137.811 24.345 138.083 25.473 138.083 26.753ZM135.227 25.889C135.211 24.881 134.851 24.073 134.147 23.465C133.443 22.857 132.571 22.553 131.531 22.553C130.587 22.553 129.779 22.857 129.107 23.465C128.435 24.057 128.035 24.865 127.907 25.889H135.227ZM145.575 33.905C144.535 33.905 143.599 33.721 142.767 33.353C141.951 32.969 141.303 32.457 140.823 31.817C140.343 31.161 140.087 30.433 140.055 29.633H142.887C142.935 30.193 143.199 30.665 143.679 31.049C144.175 31.417 144.791 31.601 145.527 31.601C146.295 31.601 146.887 31.457 147.303 31.169C147.735 30.865 147.951 30.481 147.951 30.017C147.951 29.521 147.711 29.153 147.231 28.913C146.767 28.673 146.023 28.409 144.999 28.121C144.007 27.849 143.199 27.585 142.575 27.329C141.951 27.073 141.407 26.681 140.943 26.153C140.495 25.625 140.271 24.929 140.271 24.065C140.271 23.361 140.479 22.721 140.895 22.145C141.311 21.553 141.903 21.089 142.671 20.753C143.455 20.417 144.351 20.249 145.359 20.249C146.863 20.249 148.071 20.633 148.983 21.401C149.911 22.153 150.407 23.185 150.471 24.497H147.735C147.687 23.905 147.447 23.433 147.015 23.081C146.583 22.729 145.999 22.553 145.263 22.553C144.543 22.553 143.991 22.689 143.607 22.961C143.223 23.233 143.031 23.593 143.031 24.041C143.031 24.393 143.159 24.689 143.415 24.929C143.671 25.169 143.983 25.361 144.351 25.505C144.719 25.633 145.263 25.801 145.983 26.009C146.943 26.265 147.727 26.529 148.335 26.801C148.959 27.057 149.495 27.441 149.943 27.953C150.391 28.465 150.623 29.145 150.639 29.993C150.639 30.745 150.431 31.417 150.015 32.009C149.599 32.601 149.007 33.065 148.239 33.401C147.487 33.737 146.599 33.905 145.575 33.905ZM156.787 22.697V30.017C156.787 30.513 156.899 30.873 157.123 31.097C157.363 31.305 157.763 31.409 158.323 31.409H160.003V33.689H157.843C156.611 33.689 155.667 33.401 155.011 32.825C154.355 32.249 154.027 31.313 154.027 30.017V22.697H152.467V20.465H154.027V17.177H156.787V20.465H160.003V22.697H156.787Z" fill="white"/>
</svg>
